<?xml version="1.0" encoding="UTF-8" standalone="no"?>
<!DOCTYPE svg PUBLIC "-//W3C//DTD SVG 1.1//EN" "http://www.w3.org/Graphics/SVG/1.1/DTD/svg11.dtd">
<svg width="100%" height="100%" viewBox="0 0 1168 540" version="1.1" xmlns="http://www.w3.org/2000/svg" xmlns:xlink="http://www.w3.org/1999/xlink" xml:space="preserve" xmlns:serif="http://www.serif.com/" style="fill-rule:evenodd;clip-rule:evenodd;stroke-linejoin:round;stroke-miterlimit:2;">
    <g id="Mesa-de-trabajo1" serif:id="Mesa de trabajo1" transform="matrix(0.989362,0,0,0.835101,-115.016,-102.165)">
        <rect x="116.253" y="122.339" width="1180.28" height="645.776" style="fill:none;"/>
        <g transform="matrix(1.15216,0,0,1.36498,-62.8602,-143.761)">
            <g transform="matrix(0.482509,0,0,0.482509,-573.654,89.5491)">
                <g transform="matrix(1.81533,0,0,1.81533,-456.381,-1444.58)">
                    <path d="M1177.67,1054.66C1176.15,1047.32 1175.36,1039.73 1175.36,1031.95C1175.36,994.498 1193.79,961.318 1222.07,940.995C1225.38,938.618 1228.82,936.417 1232.38,934.406C1235.72,932.522 1239.16,930.804 1242.7,929.264C1245.19,928.184 1247.71,927.19 1250.29,926.289C1277.38,946.725 1294.9,979.18 1294.9,1015.7C1294.9,1035.73 1289.63,1054.54 1280.39,1070.81C1270.62,1088.05 1250.26,1100.31 1226.05,1110.96C1216.25,1115.27 1193.24,1122.53 1184.39,1127.62C1154.95,1144.54 1135.45,1173.93 1135.45,1207.31C1135.45,1259.71 1183.47,1302.25 1242.61,1302.25C1268.56,1302.25 1292.36,1294.06 1310.91,1280.44C1334.64,1263.02 1349.77,1236.72 1349.77,1207.31C1349.77,1180.85 1337.52,1156.9 1317.77,1139.67C1306.68,1130 1293.23,1122.45 1278.26,1117.77C1276.96,1117.38 1275.95,1116.37 1275.54,1115.08C1275.14,1113.79 1275.4,1112.38 1276.24,1111.32C1285.84,1099.43 1297.82,1089.54 1311.45,1082.38C1312.57,1081.8 1313.89,1081.77 1315.04,1082.29C1333.04,1090.49 1349.04,1101.66 1362.23,1115.07C1386.51,1139.76 1401.23,1172.03 1401.23,1207.31C1401.23,1239.74 1388.81,1269.61 1367.96,1293.39C1338.93,1326.51 1293.56,1347.84 1242.61,1347.84C1155.06,1347.84 1083.99,1284.87 1083.99,1207.31C1083.99,1176.54 1095.18,1148.07 1114.14,1124.91C1117.82,1120.42 1121.79,1116.13 1126.03,1112.06C1127.69,1110.47 1129.39,1108.91 1131.13,1107.39C1146.28,1094.12 1164.43,1085.53 1184.59,1078.5C1193.79,1075.29 1203.01,1071.67 1213.03,1068.29C1220.88,1065.7 1227.81,1060.91 1233.02,1054.5C1236.1,1050.77 1238.87,1047.19 1241.28,1043.46C1248.64,1032.11 1251.89,1018.58 1250.49,1005.12C1249.22,992.585 1247.51,984.567 1244.83,977.118C1244.69,976.752 1244.33,976.518 1243.94,976.544C1243.55,976.57 1243.23,976.85 1243.14,977.23C1235.05,1012.05 1209.79,1040.67 1177.67,1054.66Z" style="fill:url(#_Linear1);"/>
                </g>
                <path d="M1605.05,755.225C1609.85,846.567 1695.08,919.422 1799.36,919.422C1846.47,919.422 1889.68,904.557 1923.36,879.838C1966.43,848.217 1993.89,800.47 1993.89,747.087C1993.89,699.043 1971.65,655.564 1935.8,624.296C1914.54,605.757 1888.5,591.51 1859.47,583.152C1858.17,582.784 1857.13,581.797 1856.7,580.515C1856.28,579.233 1856.51,577.821 1857.32,576.743C1875.57,552.974 1898.96,533.348 1925.81,519.531C1926.91,518.965 1928.22,518.931 1929.35,519.438C1962.64,534.398 1992.21,554.922 2016.51,579.624C2060.6,624.446 2087.31,683.025 2087.31,747.087C2087.31,805.941 2064.76,860.167 2026.91,903.35C1974.22,963.471 1891.85,1002.19 1799.36,1002.19C1643.41,1002.19 1516.25,892.111 1511.55,754.949C1552.9,755.034 1582.58,755.236 1605.05,755.225Z" style="fill:rgb(6,83,95);"/>
            </g>
            <g transform="matrix(8.31272,0,0,8.31272,-8796.56,-7661.34)">
                <path d="M1093.71,979.279C1092.38,979.279 1091.42,978.979 1090.83,978.379C1090.25,977.779 1089.96,977.012 1089.96,976.079L1089.96,975.079C1089.96,974.145 1090.25,973.379 1090.83,972.779C1091.42,972.179 1092.38,971.879 1093.71,971.879C1095.01,971.879 1095.96,972.179 1096.56,972.779C1097.16,973.379 1097.46,974.145 1097.46,975.079L1097.46,976.079C1097.46,977.012 1097.16,977.779 1096.56,978.379C1095.96,978.979 1095.01,979.279 1093.71,979.279Z" style="fill:rgb(253,137,36);fill-rule:nonzero;"/>
            </g>
        </g>
        <g transform="matrix(6.28102,0,0,7.44126,-5700.26,-6969.52)">
            <path d="M987.709,974.279L1000.41,974.279C1002.68,974.279 1004.73,974.645 1006.58,975.379C1008.43,976.112 1010.02,977.204 1011.33,978.654C1012.65,980.104 1013.67,981.92 1014.38,984.104C1015.1,986.287 1015.46,988.829 1015.46,991.729C1015.46,994.629 1015.1,997.17 1014.38,999.354C1013.67,1001.54 1012.65,1003.35 1011.33,1004.8C1010.02,1006.25 1008.43,1007.35 1006.58,1008.08C1004.73,1008.81 1002.68,1009.18 1000.41,1009.18L987.709,1009.18L987.709,974.279ZM1000.41,1003.33C1002.88,1003.33 1004.83,1002.6 1006.28,1001.15C1007.73,999.704 1008.46,997.479 1008.46,994.479L1008.46,988.979C1008.46,985.979 1007.73,983.754 1006.28,982.304C1004.83,980.854 1002.88,980.129 1000.41,980.129L994.309,980.129L994.309,1003.33L1000.41,1003.33Z" style="fill:rgb(6,83,95);fill-rule:nonzero;"/>
        </g>
        <g transform="matrix(6.28102,0,0,7.44126,-5700.26,-6969.52)">
            <path d="M1035.86,1009.78C1033.56,1009.78 1031.47,1009.39 1029.61,1008.63C1027.74,1007.86 1026.15,1006.71 1024.83,1005.18C1023.52,1003.64 1022.49,1001.76 1021.76,999.529C1021.02,997.295 1020.66,994.695 1020.66,991.729C1020.66,988.795 1021.02,986.204 1021.76,983.954C1022.49,981.704 1023.52,979.812 1024.83,978.279C1026.15,976.745 1027.74,975.595 1029.61,974.829C1031.47,974.062 1033.56,973.679 1035.86,973.679C1038.16,973.679 1040.24,974.062 1042.11,974.829C1043.97,975.595 1045.58,976.745 1046.91,978.279C1048.24,979.812 1049.27,981.704 1049.98,983.954C1050.7,986.204 1051.06,988.795 1051.06,991.729C1051.06,994.695 1050.7,997.295 1049.98,999.529C1049.27,1001.76 1048.24,1003.64 1046.91,1005.18C1045.58,1006.71 1043.97,1007.86 1042.11,1008.63C1040.24,1009.39 1038.16,1009.78 1035.86,1009.78ZM1035.86,1003.93C1038.36,1003.93 1040.35,1003.1 1041.83,1001.43C1043.32,999.762 1044.06,997.429 1044.06,994.429L1044.06,989.029C1044.06,986.029 1043.32,983.695 1041.83,982.029C1040.35,980.362 1038.36,979.529 1035.86,979.529C1033.36,979.529 1031.37,980.362 1029.88,982.029C1028.4,983.695 1027.66,986.029 1027.66,989.029L1027.66,994.429C1027.66,997.429 1028.4,999.762 1029.88,1001.43C1031.37,1003.1 1033.36,1003.93 1035.86,1003.93Z" style="fill:rgb(6,83,95);fill-rule:nonzero;"/>
        </g>
        <g transform="matrix(6.28102,0,0,7.44126,-5700.26,-6969.52)">
            <path d="M1057.76,974.279L1073.91,974.279C1075.34,974.279 1076.63,974.495 1077.78,974.929C1078.93,975.362 1079.91,975.962 1080.71,976.729C1081.51,977.495 1082.12,978.437 1082.53,979.554C1082.95,980.67 1083.16,981.895 1083.16,983.229C1083.16,984.562 1082.98,985.687 1082.63,986.604C1082.28,987.52 1081.82,988.279 1081.23,988.879C1080.65,989.479 1079.98,989.929 1079.23,990.229C1078.48,990.529 1077.71,990.695 1076.91,990.729L1076.91,991.029C1077.67,991.029 1078.5,991.179 1079.38,991.479C1080.27,991.779 1081.08,992.254 1081.83,992.904C1082.58,993.554 1083.21,994.387 1083.71,995.404C1084.21,996.42 1084.46,997.679 1084.46,999.179C1084.46,1000.58 1084.23,1001.89 1083.78,1003.1C1083.33,1004.32 1082.71,1005.38 1081.91,1006.28C1081.11,1007.18 1080.16,1007.89 1079.06,1008.4C1077.96,1008.92 1076.76,1009.18 1075.46,1009.18L1057.76,1009.18L1057.76,974.279ZM1064.36,1003.58L1073.56,1003.58C1074.83,1003.58 1075.81,1003.25 1076.51,1002.6C1077.21,1001.95 1077.56,1001.01 1077.56,999.779L1077.56,998.079C1077.56,996.845 1077.21,995.895 1076.51,995.229C1075.81,994.562 1074.83,994.229 1073.56,994.229L1064.36,994.229L1064.36,1003.58ZM1064.36,988.829L1072.51,988.829C1073.71,988.829 1074.64,988.504 1075.31,987.854C1075.97,987.204 1076.31,986.295 1076.31,985.129L1076.31,983.579C1076.31,982.412 1075.97,981.504 1075.31,980.854C1074.64,980.204 1073.71,979.879 1072.51,979.879L1064.36,979.879L1064.36,988.829Z" style="fill:rgb(6,83,95);fill-rule:nonzero;"/>
        </g>
        <g transform="matrix(6.28102,0,0,7.44126,-5700.26,-6969.52)">
            <rect x="1090.51" y="983.079" width="6.4" height="26.1" style="fill:rgb(6,83,95);fill-rule:nonzero;"/>
        </g>
        <g transform="matrix(6.28102,0,0,7.44126,-5700.26,-6969.52)">
            <path d="M1093.71,979.279C1092.38,979.279 1091.42,978.979 1090.83,978.379C1090.25,977.779 1089.96,977.012 1089.96,976.079L1089.96,975.079C1089.96,974.145 1090.25,973.379 1090.83,972.779C1091.42,972.179 1092.38,971.879 1093.71,971.879C1095.01,971.879 1095.96,972.179 1096.56,972.779C1097.16,973.379 1097.46,974.145 1097.46,975.079L1097.46,976.079C1097.46,977.012 1097.16,977.779 1096.56,978.379C1095.96,978.979 1095.01,979.279 1093.71,979.279Z" style="fill:rgb(253,137,36);fill-rule:nonzero;"/>
        </g>
        <g transform="matrix(1.01075,0,0,1.19746,-697.437,-1309.44)">
            <text x="1182.22px" y="1636.93px" style="font-family:'IBMPlexSans-Medium', 'IBM Plex Sans', sans-serif;font-weight:500;font-size:66.667px;fill:rgb(6,83,95);">Desarr<tspan x="1385.09px 1422.69px 1441.29px " y="1636.93px 1636.93px 1636.93px ">oll</tspan>o y Op<tspan x="1650.15px " y="1636.93px ">t</tspan>imización</text>
            <g transform="matrix(66.6667,0,0,66.6667,1650.09,1703.6)">
            </g>
            <text x="1182.22px" y="1703.6px" style="font-family:'IBMPlexSans-Medium', 'IBM Plex Sans', sans-serif;font-weight:500;font-size:66.667px;fill:rgb(6,83,95);">de Biopr<tspan x="1438.35px 1475.95px 1509.55px " y="1703.6px 1703.6px 1703.6px ">oce</tspan>sos</text>
        </g>
    </g>
    <defs>
        <linearGradient id="_Linear1" x1="0" y1="0" x2="1" y2="0" gradientUnits="userSpaceOnUse" gradientTransform="matrix(-7.64112,210.775,-210.775,-7.64112,1250.29,926.289)"><stop offset="0" style="stop-color:rgb(253,137,36);stop-opacity:1"/><stop offset="0.56" style="stop-color:rgb(202,126,48);stop-opacity:1"/><stop offset="1" style="stop-color:rgb(6,83,95);stop-opacity:1"/></linearGradient>
    </defs>
</svg>
